<svg id="Capa_1" enable-background="new 0 0 502 502" height="512" viewBox="0 0 502 502" width="512"
     xmlns="http://www.w3.org/2000/svg">
    <g>
        <path d="m148.98 92h204v40h-204z" fill="#6ec189"/>
        <path d="m464.81 321.23c.12 51.87-42.03 94.63-93.9 95.21-15.66.18-30.47-3.43-43.55-9.97-8.31-4.16-17.23-6.83-26.35-8.32-6.81-1.11-13.03 4.13-13.03 11.05v13.5c0 3.95 1.95 7.63 5.19 9.89 12.57 8.76 26.32 15.43 40.81 19.41l6.89 27.57c1.58 6.32-3.19 12.43-9.7 12.43h-160.38c-6.51 0-11.28-6.11-9.7-12.43l6.89-27.57c14.49-3.98 28.24-10.65 40.81-19.41 3.24-2.26 5.19-5.94 5.19-9.89v-13.5c0-6.92-6.2-12.12-13.03-11.06-9.14 1.41-18.05 4.17-26.35 8.33-13.08 6.54-27.89 10.15-43.55 9.97-51.87-.58-94.02-43.34-93.9-95.21.04-15.97 4.01-31.01 11.01-44.2 19.03-35.91 54.33-106.29 74.81-144.95-7.44 11.11-20.11 18.42-34.49 18.42-22.92 0-41.5-18.58-41.5-41.5 0-34.24 27.76-62 62-62s62 27.76 62 62c0 10.55-1.67 20.72-4.76 30.24-11.87 36.63-50.61 109.89-62.48 146.52-3.09 9.52-4.76 19.69-4.76 30.24 0 19.88 16.12 36 36 36s36-16.12 36-36h160c0 19.88 16.12 36 36 36s36-16.12 36-36c0-10.55-1.67-20.72-4.76-30.24-11.87-36.63-50.61-109.89-62.48-146.52-3.09-9.521-4.76-19.69-4.76-30.24 0-34.24 27.76-62 62-62s62 27.76 62 62c0 22.92-18.58 41.5-41.5 41.5-14.38 0-27.05-7.31-34.49-18.42 20.48 38.66 55.78 109.04 74.81 144.95 7 13.19 10.97 28.23 11.01 44.2z"
              fill="#6ec189"/>
        <path d="m81.648 231.725c0 5.526-4.479 10.005-10.005 10.005s-10.005-4.479-10.005-10.005 4.479-10.005 10.005-10.005 10.005 4.479 10.005 10.005zm89.14 270.275c-13.011 0-22.559-12.228-19.403-24.851l6.894-27.575c.931-3.725 3.883-6.519 7.511-7.332 12.942-3.605 25.495-9.611 37.319-17.857.571-.398.912-1.028.912-1.685v-13.493c0-1.071-1.099-1.24-1.47-1.178-8.602 1.407-16.449 3.884-23.441 7.381-14.46 7.234-29.606 11.17-48.132 11.036-57.216-.412-103.918-47.858-103.787-105.238.04-17.017 4.247-33.912 12.168-48.86.73-1.378 1.661-3.152 2.759-5.258 6.184-11.769 23.864-2.479 17.68 9.29l.034-.014c-1.161 2.229-2.107 4.036-2.801 5.346-6.405 12.088-9.808 25.761-9.84 39.542-.105 46.45 37.582 84.667 84.014 85.192 13.689.151 26.811-2.847 38.958-8.924 8.796-4.399 24.768-9.522 32.623-9.522h96.322c7.855 0 23.933 5.122 32.729 9.521 12.147 6.077 25.269 9.076 38.958 8.924 46.432-.525 84.119-38.742 84.014-85.192-.032-13.78-3.435-27.454-9.84-39.542-9.377-17.693-64.568-125.736-75.183-145.292-4.65-8.567-7.806-16.963-7.806-27.419 0-5.398 4.277-9.796 9.626-9.993 5.619-.207 10.357 4.47 10.374 10.093.054 17.43 14.338 31.574 31.82 31.399 18.241-.182 32.109-16.195 31.099-34.41-1.523-27.474-24.473-49.327-52.375-49.087-29.977.258-52.751 25.903-51.461 55.854.343 7.958 1.747 15.78 4.186 23.305 5.754 17.751 18.494 45.409 30.814 72.156 12.563 27.276 25.556 55.479 31.674 74.356 3.248 10.017 5 20.453 5.22 31.054.543 26.239-20.082 48.468-46.326 48.272-21.776-.163-40.001-15.536-44.556-35.999h-142.19c-4.555 20.462-22.779 35.836-44.556 35.999-26.244.196-46.869-22.032-46.326-48.272.219-10.602 1.972-21.038 5.22-31.055 6.118-18.876 19.11-47.08 31.674-74.356 12.32-26.747 25.061-54.404 30.814-72.155 2.439-7.525 3.843-15.347 4.186-23.305 1.29-29.951-21.484-55.595-51.461-55.854-27.916-.241-50.874 21.634-52.378 49.126-.996 18.212 12.87 34.192 31.108 34.37 17.512.171 31.813-14.025 31.813-31.498 0-5.691 4.754-10.272 10.507-9.987 5.406.267 9.535 4.997 9.491 10.409-.083 10.261-3.177 18.547-7.764 26.999-4.553 8.388-17.306 33.055-31.128 59.889l-.037-.119c-6.074 11.869-23.853 2.77-17.779-9.099 6.275-12.247 11.626-22.83 13.932-27.33-2.949.505-5.982.759-9.077.738-30.111-.204-53.094-26.606-50.964-56.643 2.647-37.31 33.848-66.857 71.82-66.857 20.422 0 38.884 8.546 52 22.25v-13.25c0-5.744 4.842-10.356 10.667-9.978 5.315.345 9.333 4.995 9.333 10.321v35.657h20v-54c0-5.744 4.842-10.356 10.667-9.978 5.315.345 9.333 4.995 9.333 10.321v53.657h20v-72c0-5.744 4.842-10.356 10.667-9.978 5.315.345 9.333 4.995 9.333 10.321v71.657h20v-54c0-5.744 4.842-10.356 10.667-9.978 5.315.345 9.333 4.995 9.333 10.321v53.657h20v-36c0-5.744 4.842-10.356 10.667-9.978 5.315.345 9.333 4.995 9.333 10.321v12.907c13.116-13.704 31.578-22.25 52-22.25 38.016 0 69.245 29.616 71.827 66.988 2.073 30.009-20.946 56.339-51.026 56.512-3.09.018-6.119-.238-9.063-.745 6.699 13.011 48.614 95.027 57.923 112.592 7.921 14.948 12.128 31.843 12.168 48.86.131 57.38-46.571 104.826-103.787 105.238-18.525.133-33.672-3.802-48.132-11.036-6.991-3.497-14.897-5.983-23.499-7.39-.37-.061-1.411.117-1.411 1.188v13.493c0 .657.341 1.287.912 1.685 11.932 8.322 24.607 14.363 37.675 17.956 3.445.922 6.217 3.647 7.114 7.235l6.894 27.575c3.155 12.621-6.392 24.849-19.404 24.849zm-9.808-322.588c-5.254 11.953-41.194 87.911-47.731 109.428-2.67 8.788-4.269 17.875-4.269 27.161 0 14.336 11.663 26 26 26s26-11.664 26-26zm40-37.412h-20v164h20zm40 0h-20v164h20zm40 0h-20v164h20zm40 0h-20v164h20zm.775-20c-.711-5.242-1.05-13.516-.438-20h-140.675c.66 5.081.37 15.291-.438 20zm19.225 57.412v136.588c0 14.336 11.663 26 26 26s26-11.664 26-26c0-9.285-1.737-18.332-4.269-27.16-5.635-19.646-42.477-97.475-47.731-109.428zm-63 243.287v-14.699h-53.96v14.7c0 6.996-3.36 14.344-11.176 19.3h76.313c-7.817-4.956-11.177-12.305-11.177-19.301zm53.192 59.301-5-20h-150.385l-5 20z"/>
    </g>
</svg>
