<svg id="Capa_1" enable-background="new 0 0 512 512" height="512" fill="#595cae" viewBox="0 0 512 512" width="512" xmlns="http://www.w3.org/2000/svg"><g><path d="m437.02 74.98c-48.353-48.351-112.64-74.98-181.02-74.98s-132.668 26.629-181.02 74.98c-48.351 48.353-74.98 112.64-74.98 181.02s26.629 132.667 74.98 181.02c48.352 48.351 112.64 74.98 181.02 74.98s132.667-26.629 181.02-74.98c48.351-48.353 74.98-112.64 74.98-181.02s-26.629-132.667-74.98-181.02zm-24.698 31.96c10.367 10.859 19.466 22.618 27.243 35.092-20.543 2.444-39.809 11.874-54.336 26.675-7.548-11.138-16.5-21.248-26.594-30.086 14.908-14.529 33.27-25.474 53.687-31.681zm-40.322 149.06c0 63.962-52.037 116-116 116s-116-52.038-116-116c0-40.794 21.17-76.734 53.098-97.42.046-.029.091-.061.137-.09 18.104-11.694 39.655-18.49 62.765-18.49 23.103 0 44.647 6.792 62.749 18.479.053.034.104.071.158.104 31.925 20.687 53.093 56.625 53.093 97.417zm-116-216c44.067 0 86.112 13.121 121.698 37.491-.018.008-.036.016-.053.024-19.97 9.358-37.955 22.523-52.812 38.519-20.774-10.258-44.14-16.034-68.833-16.034s-48.059 5.776-68.833 16.034c-14.857-15.996-32.841-29.161-52.812-38.518-.018-.008-.036-.016-.054-.024 35.586-24.371 77.631-37.492 121.699-37.492zm-156.322 66.94c20.441 6.215 38.796 17.169 53.687 31.681-10.094 8.837-19.046 18.948-26.594 30.086-14.527-14.801-33.793-24.231-54.335-26.676 7.776-12.473 16.875-24.232 27.242-35.091zm-46.794 222.852c-8.463-23.341-12.884-48.226-12.884-73.792s4.421-50.451 12.884-73.792c21.899-3.97 44.174 6.999 54.281 27.024-4.652 14.771-7.165 30.481-7.165 46.768s2.513 31.997 7.165 46.769c-10.107 20.024-32.384 30.993-54.281 27.023zm46.794 75.268c-10.366-10.858-19.465-22.618-27.242-35.091 20.542-2.444 39.806-11.879 54.333-26.68 7.548 11.139 16.501 21.251 26.596 30.089-14.878 14.501-33.23 25.462-53.687 31.682zm156.322 66.94c-44.068 0-86.113-13.121-121.698-37.491.018-.008.035-.016.053-.024 19.972-9.358 37.956-22.523 52.813-38.519 20.773 10.258 44.139 16.034 68.832 16.034s48.059-5.776 68.833-16.034c14.857 15.996 32.841 29.161 52.811 38.518.018.008.036.016.054.024-35.586 24.371-77.631 37.492-121.698 37.492zm156.322-66.94c-20.441-6.215-38.796-17.169-53.686-31.681 10.095-8.838 19.047-18.949 26.595-30.088 14.527 14.802 33.79 24.235 54.333 26.679-7.777 12.473-16.876 24.232-27.242 35.09zm-7.488-102.29c4.652-14.772 7.166-30.482 7.166-46.77s-2.514-31.998-7.166-46.77c10.106-20.025 32.381-30.995 54.281-27.023 8.464 23.341 12.885 48.226 12.885 73.793 0 25.566-4.421 50.451-12.884 73.792-21.896 3.97-44.174-6.998-54.282-27.022z"/></g></svg>
